Filename:
Red DVDSCR CROPPED AC3 XViD - IMAGiNE
 
http://www.imdb.com/title/tt1245526/

DETAILS:

Video
ID                               : 0
Format                           : MPEG-4 Visual
Format profile                   : Advanced Simple@L5
Format settings, BVOP            : Yes
Format settings, QPel            : No
Format settings, GMC             : No warppoints
Format settings, Matrix          : Default (H.263)
Muxing mode                      : Packed bitstream
Codec ID                         : XVID
Codec ID/Hint                    : XviD
Duration                         : 1h 45mn
Bit rate                         : 1 828 Kbps
Width                            : 704 pixels
Height                           : 272 pixels
Display aspect ratio             : 2.588
Frame rate                       : 23.976 fps
Color space                      : YUV
Chroma subsampling               : 4:2:0
Bit depth                        : 8 bits
Scan type                        : Progressive
Bits/(Pixel*Frame)               : 0.398
Stream size                      : 1.35 GiB (87%)
Writing library                  : XviD 1.1.2 (UTC 2006-11-01)

Audio
ID                               : 1
Format                           : AC-3
Format/Info                      : Audio Coding 3
Mode extension                   : CM (complete main)
Codec ID                         : 2000
Duration                         : 1h 45mn
Bit rate mode                    : Constant
Bit rate                         : 256 Kbps
Channel(s)                       : 2 channels
Channel positions                : Front: L R
Sampling rate                    : 48.0 KHz
Bit depth                        : 16 bits
Stream size                      : 193 MiB (12%)
Alignment                        : Aligned on interleaves
Interleave, duration             : 42 ms (1.00 video frame)
Interleave, preload duration     : 512 ms

NOTES:

IMAGiNE bringing you another release..........Red 2010

Right heres our first rip of this nice dvdscr .....this one is with the top line of text cropped the other shall be uncropped.
There is also text ,2 lines at the bottom on and off throughout the film.
Source was pretty nice....seen better dvdscrs but also seen alot worse so
For this we made a small script containg ,crop,resize,whitebalance,brightness,contrast,sharpness,chroma.....
Just thought the source needed some life adding to it mainly and a touch more colour and brightness....
The audio we kept the original track and just muxed it to our encode

Enjoy folks 